<?xml version="1.0" standalone="no"?>
<!DOCTYPE svg PUBLIC "-//W3C//DTD SVG 20010904//EN"
 "http://www.w3.org/TR/2001/REC-SVG-20010904/DTD/svg10.dtd">
<svg version="1.0" xmlns="http://www.w3.org/2000/svg"
 width="600.000000pt" height="400.000000pt" viewBox="0 0 600.000000 400.000000"
 preserveAspectRatio="xMidYMid meet">
<g transform="translate(0.000000,400.000000) scale(0.100000,-0.100000)"
fill="#000000" stroke="none">
<path d="M5390 3966 c0 -2 8 -10 18 -17 15 -13 16 -12 3 4 -13 16 -21 21 -21
13z"/>
<path d="M3390 3950 c0 -5 5 -10 10 -10 6 0 10 5 10 10 0 6 -4 10 -10 10 -5 0
-10 -4 -10 -10z"/>
<path d="M2226 3827 c3 -10 9 -15 12 -12 3 3 0 11 -7 18 -10 9 -11 8 -5 -6z"/>
<path d="M4215 3770 c-3 -5 -1 -10 4 -10 6 0 11 5 11 10 0 6 -2 10 -4 10 -3 0
-8 -4 -11 -10z"/>
<path d="M2160 3760 c0 -5 5 -10 11 -10 5 0 7 5 4 10 -3 6 -8 10 -11 10 -2 0
-4 -4 -4 -10z"/>
<path d="M4151 3704 c0 -11 3 -14 6 -6 3 7 2 16 -1 19 -3 4 -6 -2 -5 -13z"/>
<path d="M3987 3509 c-188 -44 -312 -226 -285 -421 16 -117 90 -225 193 -279
38 -20 45 -28 43 -49 -2 -18 -10 -26 -28 -28 -154 -19 -343 -107 -482 -226
-158 -135 -265 -310 -319 -522 -26 -105 -32 -311 -11 -409 85 -394 350 -673
742 -781 50 -14 103 -18 230 -19 142 0 177 3 250 23 388 106 669 419 731 815
16 103 6 289 -20 391 -39 148 -140 333 -229 420 l-41 39 55 79 c30 44 54 89
54 100 0 24 -62 85 -113 113 -53 28 -80 15 -138 -68 l-50 -72 -76 37 c-79 38
-209 78 -256 78 -23 0 -27 4 -27 30 0 25 7 33 41 51 57 28 130 104 158 162 67
139 46 305 -55 417 -92 102 -239 149 -367 119z m228 -71 c64 -33 127 -96 157
-156 19 -39 23 -63 23 -142 0 -110 -17 -154 -89 -228 -33 -36 -83 -72 -98 -72
-2 0 -1 22 0 50 l4 50 43 0 c61 0 75 22 75 122 0 121 7 118 -259 118 l-220 0
-20 -26 c-17 -21 -21 -41 -21 -98 0 -91 18 -116 85 -116 l45 0 0 -50 c0 -27
-2 -50 -5 -50 -3 0 -23 11 -44 24 -47 30 -84 74 -119 140 -22 43 -26 64 -26
136 0 72 4 93 27 142 34 70 109 139 180 168 74 29 192 24 262 -12z m77 -296
c4 -4 9 -39 11 -79 5 -74 -7 -104 -34 -87 -8 5 -9 3 -4 -6 6 -10 4 -12 -9 -7
-10 4 -26 2 -37 -3 -17 -9 -19 -7 -20 17 0 15 -3 21 -6 13 -2 -8 -7 -22 -10
-30 -4 -12 -7 -11 -20 5 -12 15 -14 16 -10 3 4 -13 -1 -18 -21 -21 -25 -4 -25
-4 3 -3 47 0 60 -12 38 -37 -10 -11 -12 -17 -5 -13 6 4 12 5 12 2 0 -2 3 -12
7 -22 5 -13 3 -15 -8 -9 -8 4 -11 5 -7 0 4 -4 3 -14 -3 -21 -7 -8 -6 -14 2
-20 8 -4 9 -3 5 4 -8 14 3 15 21 4 14 -9 5 -26 -19 -35 -10 -3 -18 -12 -18
-19 0 -9 3 -8 10 2 11 17 13 10 4 -14 -5 -12 -10 -13 -26 -5 -11 6 -52 10 -91
9 -40 -1 -77 -2 -83 -1 -17 2 -34 47 -23 58 15 15 17 106 3 121 -7 6 -26 12
-43 12 -29 0 -31 2 -33 43 l-1 42 -4 -38 c-4 -32 -7 -36 -19 -26 -10 8 -14 33
-14 85 0 62 3 74 19 79 10 3 27 3 37 -1 16 -5 17 -4 4 5 -11 9 35 10 185 6
109 -3 203 -9 207 -13z m-123 -398 c17 -4 28 -10 25 -15 -3 -5 8 -12 25 -15
17 -4 31 -11 31 -16 0 -5 8 -7 18 -4 24 8 187 -47 225 -75 17 -12 27 -17 23
-10 -4 6 -4 11 -1 11 9 0 27 -20 48 -53 10 -16 21 -26 24 -23 3 3 1 12 -6 20
-9 11 -8 15 4 19 8 4 12 13 9 22 -3 8 -2 15 4 15 10 0 61 71 74 103 11 25 62
17 118 -19 37 -24 45 -35 46 -62 2 -24 -1 -30 -10 -23 -8 7 -12 4 -13 -10 -1
-12 3 -17 9 -13 7 4 8 2 4 -5 -4 -6 -11 -9 -16 -6 -5 3 -14 -4 -20 -16 -8 -15
-8 -19 -1 -15 7 4 9 1 5 -8 -3 -9 -11 -14 -17 -13 -6 1 -11 -5 -12 -13 -1 -8
-6 -14 -13 -12 -9 1 -10 -6 -6 -24 4 -17 3 -25 -3 -21 -5 3 -10 0 -10 -8 0 -8
3 -12 7 -10 10 6 70 -64 70 -81 0 -8 5 -14 11 -14 5 0 7 5 3 12 -4 7 -3 8 5 4
6 -4 8 -12 5 -18 -4 -6 -2 -13 4 -17 5 -3 27 -28 48 -56 20 -27 29 -43 19 -35
-17 14 -18 14 -7 -7 7 -12 15 -23 20 -25 11 -4 62 -125 62 -146 0 -9 6 -29 14
-44 8 -15 12 -36 9 -48 -3 -11 1 -28 8 -37 11 -12 14 -53 14 -162 0 -178 -12
-260 -36 -245 -5 3 -9 0 -9 -5 0 -6 6 -11 14 -11 12 0 13 -7 6 -31 -5 -18 -16
-39 -25 -49 -8 -9 -15 -23 -15 -31 0 -12 -2 -12 -10 1 -5 8 -12 11 -16 7 -4
-4 1 -15 10 -26 20 -22 7 -37 -22 -26 -14 5 -15 4 -4 -6 6 -7 12 -20 12 -28 0
-23 -30 -50 -48 -43 -14 5 -15 3 -5 -9 10 -12 9 -22 -5 -50 -13 -27 -23 -34
-45 -33 -22 1 -25 -2 -16 -12 6 -8 16 -11 23 -7 6 3 -2 -8 -19 -26 -18 -20
-37 -31 -51 -29 -11 1 -28 -5 -37 -14 -16 -16 -16 -17 2 -15 13 1 17 6 13 17
-5 12 -3 13 10 3 8 -7 17 -12 19 -10 2 1 -3 -5 -11 -14 -8 -9 -18 -15 -21 -13
-3 1 -13 -8 -23 -21 -10 -14 -23 -22 -28 -19 -4 3 -7 0 -6 -8 2 -7 -3 -12 -9
-10 -7 1 -13 -4 -13 -11 0 -8 -11 -19 -25 -25 -14 -6 -25 -16 -25 -21 0 -4
-13 -11 -30 -14 -16 -4 -39 -16 -50 -27 -11 -11 -32 -20 -46 -20 -14 0 -23 -4
-19 -10 3 -6 -1 -10 -10 -10 -9 0 -27 -7 -41 -16 -13 -9 -27 -14 -31 -10 -3 3
-11 2 -17 -3 -21 -17 -181 -43 -276 -45 -99 -2 -243 17 -248 33 -2 6 -10 7
-19 4 -11 -5 -14 -3 -8 6 6 10 3 11 -15 1 -25 -13 -42 -4 -20 10 8 6 11 10 5
11 -5 0 -18 2 -28 4 -10 2 -14 -1 -11 -7 4 -6 1 -8 -7 -6 -8 3 -13 11 -11 18
2 10 -1 10 -14 0 -14 -12 -18 -12 -30 5 -8 10 -14 15 -14 11 0 -5 -7 -2 -17 5
-9 8 -19 13 -22 12 -3 -2 -6 1 -6 6 0 5 -4 13 -9 18 -5 5 -6 3 -2 -5 9 -15 1
-15 -25 -1 -11 5 -17 14 -14 19 4 6 -1 7 -11 3 -11 -4 -15 -2 -11 4 4 6 -1 10
-11 9 -10 0 -17 6 -17 16 0 10 -6 23 -13 30 -9 9 -12 9 -12 0 0 -7 5 -12 12
-12 6 0 9 -3 6 -6 -10 -9 -63 22 -83 50 -10 13 -23 22 -27 20 -5 -3 -7 0 -6 8
2 7 -4 12 -12 10 -8 -2 -12 0 -8 4 5 4 -1 14 -12 21 -11 8 -17 19 -14 25 4 6
3 8 -3 5 -5 -3 -17 3 -26 14 -20 22 -22 33 -5 23 7 -5 8 -3 4 5 -5 7 -14 10
-22 7 -8 -3 -13 -2 -12 2 3 15 -26 61 -35 55 -6 -3 -7 -1 -3 5 4 7 -3 27 -16
44 -13 18 -29 44 -35 58 -5 14 -18 42 -27 63 -18 43 -20 61 -6 52 6 -4 7 -11
4 -17 -4 -6 -2 -8 3 -5 6 4 16 0 23 -8 7 -8 20 -15 29 -14 12 0 13 2 2 6 -24
9 -72 56 -86 83 -34 67 -43 330 -15 457 17 76 68 215 82 224 7 4 9 11 6 15 -4
4 -2 16 3 27 8 14 13 16 19 8 5 -9 9 -6 13 8 3 14 1 19 -6 14 -6 -3 4 13 21
38 65 89 62 85 72 69 14 -22 12 -34 -4 -21 -10 9 -16 7 -27 -6 -11 -15 -11
-16 1 -6 10 9 17 10 27 2 15 -13 15 -13 17 23 1 15 -1 25 -5 22 -4 -2 -10 -1
-13 4 -7 11 30 42 40 34 4 -4 4 2 0 13 -4 11 -4 16 0 13 6 -7 17 0 55 35 11
10 25 14 32 10 9 -5 8 -2 -1 9 -10 13 -10 17 3 22 9 3 13 2 10 -4 -3 -6 1 -7
9 -4 9 3 14 10 11 14 -7 12 72 63 86 54 8 -4 9 -3 5 4 -5 8 2 12 21 12 22 0
25 2 13 10 -12 8 -10 10 8 10 13 0 21 4 18 8 -7 12 121 55 136 46 6 -4 8 -3 4
4 -5 9 79 35 121 37 6 0 19 8 30 17 10 9 27 18 38 21 30 7 158 8 194 1z"/>
<path d="M4082 3080 c0 -19 2 -27 5 -17 2 9 2 25 0 35 -3 9 -5 1 -5 -18z"/>
<path d="M4163 3050 c0 -30 2 -43 4 -27 2 15 2 39 0 55 -2 15 -4 2 -4 -28z"/>
<path d="M4191 3084 c0 -11 3 -14 6 -6 3 7 2 16 -1 19 -3 4 -6 -2 -5 -13z"/>
<path d="M4244 3043 c0 -34 4 -56 8 -49 4 7 3 34 -1 62 l-9 49 2 -62z"/>
<path d="M4031 3005 c0 -23 -6 -46 -13 -53 -9 -9 -9 -12 0 -12 15 0 25 39 19
76 -3 23 -4 21 -6 -11z"/>
<path d="M4675 2680 c-10 -11 -13 -20 -8 -20 13 0 38 29 31 35 -3 3 -13 -4
-23 -15z"/>
<path d="M4800 2673 c0 -5 5 -15 10 -23 7 -12 9 -10 7 8 -1 19 -17 33 -17 15z"/>
<path d="M4611 2587 c-13 -21 -12 -21 5 -5 10 10 16 20 13 22 -3 3 -11 -5 -18
-17z"/>
<path d="M4619 2563 c-12 -16 -12 -17 2 -6 9 7 20 9 24 5 5 -4 5 -1 1 6 -9 16
-11 15 -27 -5z"/>
<path d="M4722 2549 c-19 -30 -11 -32 11 -3 10 13 14 24 10 24 -5 0 -14 -9
-21 -21z"/>
<path d="M4025 2530 c3 -5 15 -10 25 -10 10 0 22 5 25 10 4 6 -7 10 -25 10
-18 0 -29 -4 -25 -10z"/>
<path d="M3935 2520 c-11 -5 -14 -9 -7 -9 6 -1 12 -8 12 -17 0 -13 -7 -15 -30
-10 -17 3 -29 2 -25 -3 3 -5 -21 -17 -52 -27 -32 -9 -76 -27 -98 -38 -50 -26
-139 -87 -143 -98 -2 -4 -8 -6 -13 -2 -5 3 -9 1 -9 -4 0 -5 -15 -26 -32 -46
-18 -20 -42 -47 -53 -61 -19 -23 -35 -25 -35 -4 0 6 5 7 12 3 7 -4 8 -3 4 5
-4 6 -4 18 1 24 4 7 -2 1 -14 -13 -23 -25 -31 -46 -14 -36 5 3 11 0 14 -7 6
-16 -17 -49 -27 -39 -5 4 -7 0 -5 -8 2 -8 -2 -25 -9 -37 -7 -13 -10 -23 -7
-23 3 0 -3 -10 -15 -22 -21 -22 -28 -44 -10 -33 5 3 3 -7 -5 -22 -8 -15 -17
-47 -21 -71 -4 -28 -10 -39 -14 -31 -12 18 -3 -225 10 -291 6 -30 20 -74 31
-97 12 -24 18 -50 15 -59 -4 -9 -2 -12 5 -8 7 4 9 0 5 -14 -4 -11 -2 -23 3
-27 7 -3 8 0 5 9 -10 27 4 17 19 -12 7 -16 13 -36 11 -45 -1 -10 2 -15 7 -11
5 3 6 10 3 16 -4 7 -2 8 4 4 7 -4 12 -12 12 -18 0 -6 7 -19 16 -29 12 -13 12
-19 3 -25 -8 -5 -10 -3 -4 7 5 8 4 11 0 6 -5 -4 -18 -1 -31 7 -12 8 -24 12
-28 9 -6 -7 39 -33 68 -39 26 -5 47 -24 39 -37 -4 -7 0 -8 12 -3 16 6 16 4 4
-11 -11 -13 -11 -15 -1 -9 15 9 65 -31 56 -45 -3 -5 2 -6 10 -3 9 3 16 1 16
-6 0 -6 6 -8 13 -4 10 6 10 4 0 -7 -20 -21 -15 -34 5 -15 18 15 20 15 35 -2 9
-10 32 -24 51 -32 19 -7 33 -17 30 -22 -3 -4 3 -5 12 -1 13 5 15 3 9 -7 -6
-10 -3 -12 13 -8 12 4 22 2 22 -4 0 -5 4 -7 9 -4 5 4 22 1 38 -6 61 -25 204
-35 304 -21 51 8 101 17 109 20 8 4 20 7 25 8 6 0 20 6 32 13 12 7 28 12 37
12 8 0 16 3 18 8 2 4 23 17 48 30 25 12 58 34 73 48 15 14 27 22 27 19 0 -3
14 7 31 22 17 16 36 27 40 25 5 -1 14 9 19 24 6 14 14 23 19 19 5 -3 13 0 17
6 4 8 3 9 -4 5 -7 -4 -12 -3 -12 3 0 5 5 13 10 16 6 4 7 11 4 17 -4 6 -2 8 3
5 6 -4 14 4 17 18 4 14 11 23 17 20 5 -4 8 -3 7 2 -1 4 10 31 26 58 15 28 24
41 21 30 -3 -11 -2 -16 2 -11 4 4 8 15 9 24 3 46 5 53 13 48 5 -4 7 4 3 16 -3
11 -1 19 4 16 11 -7 13 27 16 205 3 158 -21 259 -88 367 -11 19 -21 37 -22 40
-3 22 -16 38 -26 34 -15 -6 -39 43 -30 58 5 7 2 8 -6 3 -9 -5 -10 -2 -6 13 5
14 0 25 -16 36 -12 9 -27 16 -33 16 -5 -1 2 -8 18 -16 15 -8 27 -19 27 -25 0
-6 -17 3 -39 20 -21 17 -41 27 -45 23 -4 -4 -6 0 -4 8 2 8 -4 14 -12 15 -8 1
-14 6 -13 12 1 6 -4 14 -13 17 -10 4 -13 2 -8 -7 5 -9 3 -8 -7 1 -12 11 -12
14 1 23 12 9 12 10 -3 5 -16 -5 -97 26 -170 65 -10 5 -22 7 -27 4 -6 -4 -10
-1 -10 5 0 6 -4 9 -9 6 -5 -4 -21 -2 -36 4 -14 5 -68 11 -120 12 -52 1 -91 6
-88 11 8 14 -31 3 -43 -12 -9 -12 -12 -11 -17 3 -4 10 -5 22 -1 27 6 10 6 10
-21 -1z m347 -83 c115 -37 203 -91 289 -176 83 -84 134 -162 175 -273 36 -98
45 -277 19 -393 -32 -144 -129 -300 -243 -390 -71 -57 -196 -120 -282 -141
-87 -23 -254 -22 -338 0 -309 82 -522 340 -539 651 -20 357 212 661 563 739
100 23 256 15 356 -17z m335 -1189 c-3 -8 -6 -5 -6 6 -1 11 2 17 5 13 3 -3 4
-12 1 -19z"/>
<path d="M4026 2388 c-9 -12 -16 -33 -16 -45 0 -29 33 -63 60 -63 27 0 70 43
70 70 0 53 -84 81 -114 38z m82 -36 c3 -22 -32 -53 -53 -46 -13 5 -26 60 -17
69 3 3 11 0 19 -7 11 -8 12 -7 7 6 -5 13 -2 15 17 7 13 -4 25 -17 27 -29z"/>
<path d="M3757 2293 c-12 -11 -8 -51 6 -56 19 -7 47 12 47 32 0 24 -37 41 -53
24z m33 -27 c0 -3 -4 -8 -10 -11 -5 -3 -10 -1 -10 4 0 6 5 11 10 11 6 0 10 -2
10 -4z"/>
<path d="M4347 2293 c-11 -10 -8 -38 5 -51 15 -15 48 3 48 27 0 24 -37 41 -53
24z"/>
<path d="M4485 2261 c-3 -5 -2 -12 3 -15 5 -3 9 1 9 9 0 17 -3 19 -12 6z"/>
<path d="M4252 2174 c10 -10 20 -16 22 -13 3 3 -5 11 -17 18 -21 13 -21 12 -5
-5z"/>
<path d="M4580 2176 c7 -7 13 -7 20 0 6 6 3 10 -10 10 -13 0 -16 -4 -10 -10z"/>
<path d="M4327 2133 c16 -16 41 -37 55 -49 14 -12 32 -32 41 -44 9 -13 20 -20
24 -16 8 8 -124 136 -140 136 -6 0 3 -12 20 -27z"/>
<path d="M3534 2066 c-10 -26 4 -48 28 -44 17 2 23 10 23 28 0 18 -6 26 -23
28 -13 2 -25 -3 -28 -12z"/>
<path d="M4555 2070 c-11 -17 5 -50 24 -50 24 0 43 23 35 44 -7 18 -49 22 -59
6z"/>
<path d="M4655 2039 c-4 -6 -5 -12 -2 -15 2 -3 7 2 10 11 7 17 1 20 -8 4z"/>
<path d="M4330 1959 c-137 -34 -147 -35 -175 -21 -17 9 -54 16 -86 16 -80 -1
-138 -36 -173 -106 -34 -69 -34 -125 1 -190 91 -167 349 -120 371 68 4 40 15
55 110 154 57 61 103 112 101 113 -2 1 -69 -14 -149 -34z m83 -14 c-11 -20
-124 -115 -137 -115 -5 0 -6 -3 -3 -6 4 -4 15 -1 24 7 10 7 7 1 -6 -13 -13
-15 -27 -25 -32 -23 -4 3 -11 0 -15 -6 -4 -8 -3 -9 4 -5 7 4 12 3 12 -3 0 -5
-5 -13 -11 -17 -6 -3 -8 -17 -4 -31 5 -22 3 -25 -14 -20 -25 6 -28 -8 -5 -17
13 -5 14 -9 4 -21 -6 -7 -17 -12 -25 -9 -7 3 -16 0 -21 -7 -4 -8 -3 -10 4 -5
19 12 35 -4 21 -20 -9 -12 -15 -12 -27 -2 -13 11 -15 10 -9 -5 4 -11 3 -16 -3
-12 -6 3 -13 0 -16 -9 -3 -8 -12 -17 -20 -20 -9 -3 -12 -1 -9 4 3 6 1 10 -4
10 -6 0 -11 -4 -11 -10 0 -5 -20 -10 -45 -10 -26 0 -45 5 -45 11 0 6 -6 9 -13
6 -15 -5 -68 37 -89 73 -20 32 -33 114 -17 104 7 -4 9 0 5 13 -8 25 20 80 44
88 11 4 20 12 20 20 0 19 27 28 95 30 36 2 71 -3 87 -11 24 -12 37 -12 95 1
38 8 83 17 102 20 18 3 41 10 50 15 22 13 23 12 14 -5z"/>
<path d="M4323 1910 c-3 -30 12 -32 37 -5 13 14 20 25 16 25 -4 0 -17 -10 -28
-22 -14 -17 -18 -18 -14 -6 3 10 2 19 -2 22 -4 3 -8 -4 -9 -14z"/>
<path d="M4030 1781 c-16 -31 -12 -49 15 -67 23 -15 27 -15 50 0 43 28 26 86
-25 86 -19 0 -33 -7 -40 -19z m67 -21 c14 -19 -1 -40 -29 -40 -21 0 -33 22
-24 45 7 19 36 16 53 -5z"/>
<path d="M3971 1664 c0 -11 3 -14 6 -6 3 7 2 16 -1 19 -3 4 -6 -2 -5 -13z"/>
<path d="M4130 1650 c0 -5 5 -10 11 -10 5 0 7 5 4 10 -3 6 -8 10 -11 10 -2 0
-4 -4 -4 -10z"/>
<path d="M3455 1950 c3 -5 8 -10 11 -10 2 0 4 5 4 10 0 6 -5 10 -11 10 -5 0
-7 -4 -4 -10z"/>
<path d="M4566 1828 c3 -5 10 -6 15 -3 13 9 11 12 -6 12 -8 0 -12 -4 -9 -9z"/>
<path d="M3437 1802 c-35 -39 -6 -112 43 -112 24 0 70 42 70 63 0 8 -9 26 -21
41 -24 31 -68 35 -92 8z m63 -13 c0 -6 5 -7 10 -4 12 7 13 -25 2 -41 -4 -6
-17 -16 -29 -22 -17 -9 -22 -9 -26 3 -3 7 -1 16 6 19 7 2 4 5 -5 5 -21 1 -22
5 -7 29 12 19 49 27 49 11z"/>
<path d="M4622 1804 c-43 -30 -15 -114 38 -114 27 0 70 43 70 70 0 27 -34 60
-63 60 -12 0 -33 -7 -45 -16z m76 -32 c4 -26 -32 -64 -53 -56 -14 6 -13 8 2
20 16 12 16 12 -6 7 -17 -4 -22 -2 -19 7 2 7 12 14 22 16 10 1 21 6 24 10 4 4
-1 4 -10 1 -10 -4 -18 -3 -18 2 0 27 54 21 58 -7z"/>
<path d="M4565 1749 c-4 -6 -4 -13 -1 -16 3 -3 0 -13 -6 -22 -10 -13 -10 -14
2 -4 7 7 14 22 15 33 2 23 -1 25 -10 9z"/>
<path d="M4626 1508 c3 -5 10 -6 15 -3 13 9 11 12 -6 12 -8 0 -12 -4 -9 -9z"/>
<path d="M3534 1476 c-10 -26 4 -48 28 -44 17 2 23 10 23 28 0 18 -6 26 -23
28 -13 2 -25 -3 -28 -12z"/>
<path d="M4555 1480 c-11 -17 5 -50 24 -50 28 0 46 26 31 45 -14 17 -46 20
-55 5z m45 -14 c0 -3 -4 -8 -10 -11 -5 -3 -10 -1 -10 4 0 6 5 11 10 11 6 0 10
-2 10 -4z"/>
<path d="M3567 1355 c-4 -8 -3 -16 1 -19 4 -3 9 4 9 15 2 23 -3 25 -10 4z"/>
<path d="M4578 1342 c4 -10 7 -12 10 -4 2 7 9 9 15 5 7 -3 8 -2 4 2 -14 16
-36 14 -29 -3z"/>
<path d="M4016 1282 c-2 -4 4 -8 14 -8 10 0 16 4 14 8 -3 4 -9 8 -14 8 -5 0
-11 -4 -14 -8z"/>
<path d="M3756 1265 c-12 -12 -13 -21 -6 -36 13 -23 33 -25 51 -3 9 11 10 20
3 32 -15 23 -29 25 -48 7z"/>
<path d="M4347 1274 c-13 -13 -7 -55 9 -61 24 -9 51 23 38 45 -12 19 -36 27
-47 16z"/>
<path d="M4110 1256 c0 -2 7 -7 16 -10 8 -3 12 -2 9 4 -6 10 -25 14 -25 6z"/>
<path d="M3664 1229 c-3 -6 -2 -15 3 -20 5 -5 9 -1 9 11 0 23 -2 24 -12 9z"/>
<path d="M4032 1214 c-43 -30 -15 -114 38 -114 24 0 70 42 70 63 0 24 -40 67
-64 67 -12 0 -32 -7 -44 -16z m44 -21 c-6 -17 -5 -17 7 -1 16 21 27 14 27 -17
0 -45 -55 -67 -72 -30 -12 26 -4 60 11 50 5 -3 12 -1 16 5 10 16 18 11 11 -7z"/>
<path d="M4245 1100 c-3 -6 1 -7 9 -4 18 7 21 14 7 14 -6 0 -13 -4 -16 -10z"/>
<path d="M4138 2503 c7 -3 16 -2 19 1 4 3 -2 6 -13 5 -11 0 -14 -3 -6 -6z"/>
<path d="M3810 2490 c-18 -12 -2 -12 25 0 13 6 15 9 5 9 -8 0 -22 -4 -30 -9z"/>
<path d="M4600 2491 c0 -6 4 -13 10 -16 6 -3 7 1 4 9 -7 18 -14 21 -14 7z"/>
<path d="M3750 2460 c0 -5 5 -10 11 -10 5 0 7 5 4 10 -3 6 -8 10 -11 10 -2 0
-4 -4 -4 -10z"/>
<path d="M4621 2444 c0 -11 3 -14 6 -6 3 7 2 16 -1 19 -3 4 -6 -2 -5 -13z"/>
<path d="M3718 2443 c7 -3 16 -2 19 1 4 3 -2 6 -13 5 -11 0 -14 -3 -6 -6z"/>
<path d="M3675 2429 c-11 -16 -1 -19 13 -3 7 8 8 14 3 14 -5 0 -13 -5 -16 -11z"/>
<path d="M3395 2421 c-3 -5 -2 -12 3 -15 5 -3 9 1 9 9 0 17 -3 19 -12 6z"/>
<path d="M4723 2416 c-3 -6 -3 -8 2 -4 4 4 13 3 20 -2 8 -7 12 -5 12 3 0 16
-25 18 -34 3z"/>
<path d="M4631 2404 c0 -11 3 -14 6 -6 3 7 2 16 -1 19 -3 4 -6 -2 -5 -13z"/>
<path d="M3640 2401 c0 -17 21 -24 33 -12 9 9 7 10 -7 5 -13 -5 -17 -4 -12 4
4 7 2 12 -3 12 -6 0 -11 -4 -11 -9z"/>
<path d="M3594 2368 c-46 -34 -104 -91 -104 -102 0 -5 8 -2 18 7 10 10 22 14
26 10 4 -4 4 1 0 12 -4 11 -4 17 1 13 4 -4 17 4 28 18 11 14 26 23 34 20 8 -4
11 -1 8 5 -4 6 1 17 11 24 11 8 16 15 13 15 -4 0 -19 -10 -35 -22z"/>
<path d="M4500 2386 c0 -2 7 -7 16 -10 8 -3 12 -2 9 4 -6 10 -25 14 -25 6z"/>
<path d="M4642 2360 c0 -14 2 -19 5 -12 2 6 2 18 0 25 -3 6 -5 1 -5 -13z"/>
<path d="M4657 2323 c-10 -10 -8 -43 2 -43 5 0 8 11 7 25 0 14 -1 25 -2 25 0
0 -4 -3 -7 -7z"/>
<path d="M4742 2300 c0 -14 2 -19 5 -12 2 6 2 18 0 25 -3 6 -5 1 -5 -13z"/>
<path d="M4700 2251 c0 -5 5 -13 10 -16 6 -3 10 -2 10 4 0 5 -4 13 -10 16 -5
3 -10 2 -10 -4z"/>
<path d="M4657 2225 c-4 -8 -2 -17 3 -20 6 -4 10 -4 10 -1 0 2 3 11 6 20 3 9
2 16 -4 16 -5 0 -12 -7 -15 -15z"/>
<path d="M4680 2212 c0 -5 10 -17 21 -28 22 -19 22 -19 10 3 -12 24 -31 39
-31 25z"/>
<path d="M4745 2200 c3 -5 8 -10 11 -10 2 0 4 5 4 10 0 6 -5 10 -11 10 -5 0
-7 -4 -4 -10z"/>
<path d="M3266 2173 c-6 -14 -5 -15 5 -6 7 7 10 15 7 18 -3 3 -9 -2 -12 -12z"/>
<path d="M4910 2181 c0 -6 4 -13 10 -16 6 -3 7 1 4 9 -7 18 -14 21 -14 7z"/>
<path d="M3405 2160 c-3 -6 1 -7 9 -4 18 7 21 14 7 14 -6 0 -13 -4 -16 -10z"/>
<path d="M3384 2126 c-19 -21 -26 -55 -14 -73 9 -16 10 -15 5 5 -4 14 0 33 10
48 18 28 17 40 -1 20z"/>
<path d="M3351 2034 c0 -11 3 -14 6 -6 3 7 2 16 -1 19 -3 4 -6 -2 -5 -13z"/>
<path d="M3336 1993 c-6 -14 -5 -15 5 -6 7 7 10 15 7 18 -3 3 -9 -2 -12 -12z"/>
<path d="M3320 1948 c-12 -22 -12 -22 6 -6 10 10 15 20 12 24 -4 3 -12 -5 -18
-18z"/>
<path d="M3302 1860 c0 -14 2 -19 5 -12 2 6 2 18 0 25 -3 6 -5 1 -5 -13z"/>
<path d="M3292 1780 c0 -14 2 -19 5 -12 2 6 2 18 0 25 -3 6 -5 1 -5 -13z"/>
<path d="M4856 1603 c-6 -14 -5 -15 5 -6 7 7 10 15 7 18 -3 3 -9 -2 -12 -12z"/>
<path d="M4836 1554 c-4 -14 -5 -28 -3 -31 3 -2 8 8 11 23 4 14 5 28 3 31 -3
2 -8 -8 -11 -23z"/>
<path d="M4822 1480 c0 -14 2 -19 5 -12 2 6 2 18 0 25 -3 6 -5 1 -5 -13z"/>
<path d="M4967 1469 c4 -13 8 -18 11 -10 2 7 -1 18 -6 23 -8 8 -9 4 -5 -13z"/>
<path d="M4796 1445 c-3 -9 -6 -22 -5 -28 0 -7 5 -1 10 12 5 13 8 26 5 28 -2
2 -6 -3 -10 -12z"/>
<path d="M3370 1426 c0 -8 4 -17 9 -20 5 -4 7 3 4 14 -6 23 -13 26 -13 6z"/>
<path d="M4769 1383 c-13 -16 -12 -17 4 -4 16 13 21 21 13 21 -2 0 -10 -8 -17
-17z"/>
<path d="M3320 1351 c0 -9 71 -43 77 -37 2 2 -5 7 -16 11 -12 3 -21 10 -21 15
0 4 -9 10 -20 13 -11 3 -20 2 -20 -2z"/>
<path d="M4872 1341 c-11 -6 -11 -10 0 -19 10 -8 18 -8 28 0 12 8 11 9 -4 4
-13 -5 -17 -2 -12 9 6 17 6 18 -12 6z"/>
<path d="M4706 1288 c-27 -33 -32 -48 -18 -48 5 0 14 11 20 25 7 14 19 28 27
31 8 4 15 10 15 15 0 18 -18 8 -44 -23z"/>
<path d="M4830 1291 c0 -10 19 -25 25 -20 1 2 -3 10 -11 17 -8 7 -14 8 -14 3z"/>
<path d="M4745 1260 c-3 -5 1 -10 9 -10 9 0 16 5 16 10 0 6 -4 10 -9 10 -6 0
-13 -4 -16 -10z"/>
<path d="M4795 1260 c3 -5 11 -10 16 -10 6 0 7 5 4 10 -3 6 -11 10 -16 10 -6
0 -7 -4 -4 -10z"/>
<path d="M4765 1210 c-3 -5 -2 -10 4 -10 5 0 13 5 16 10 3 6 2 10 -4 10 -5 0
-13 -4 -16 -10z"/>
<path d="M4630 1200 c0 -5 5 -10 10 -10 6 0 10 5 10 10 0 6 -4 10 -10 10 -5 0
-10 -4 -10 -10z"/>
<path d="M4594 1165 c-10 -8 -14 -14 -9 -14 6 0 19 6 29 14 11 8 15 15 10 15
-6 0 -19 -7 -30 -15z"/>
<path d="M4670 1149 c0 -5 5 -7 10 -4 6 3 10 8 10 11 0 2 -4 4 -10 4 -5 0 -10
-5 -10 -11z"/>
<path d="M4707 1140 c-9 -11 -13 -20 -7 -20 5 0 14 9 20 20 6 11 9 20 8 20 -2
0 -11 -9 -21 -20z"/>
<path d="M4547 1132 c-15 -16 -15 -18 1 -18 10 0 19 8 19 18 1 10 0 18 -1 18
-2 0 -10 -8 -19 -18z"/>
<path d="M3377 1109 c7 -7 15 -10 18 -7 3 3 -2 9 -12 12 -14 6 -15 5 -6 -5z"/>
<path d="M3596 1111 c-7 -10 22 -37 30 -28 4 3 -1 13 -9 22 -9 8 -18 11 -21 6z"/>
<path d="M4500 1090 c0 -5 4 -10 9 -10 6 0 13 5 16 10 3 6 -1 10 -9 10 -9 0
-16 -4 -16 -10z"/>
<path d="M3410 1086 c0 -2 8 -10 18 -17 15 -13 16 -12 3 4 -13 16 -21 21 -21
13z"/>
<path d="M3520 1070 c-8 -5 -12 -11 -9 -14 2 -3 11 -1 19 4 8 5 12 11 9 14 -2
3 -11 1 -19 -4z"/>
<path d="M3560 1070 c0 -5 5 -10 10 -10 6 0 10 5 10 10 0 6 -4 10 -10 10 -5 0
-10 -4 -10 -10z"/>
<path d="M3650 1069 c0 -5 5 -7 10 -4 6 3 10 8 10 11 0 2 -4 4 -10 4 -5 0 -10
-5 -10 -11z"/>
<path d="M4440 1060 l-25 -20 33 11 c34 12 52 29 30 29 -7 0 -24 -9 -38 -20z"/>
<path d="M4547 1073 c-3 -5 8 -18 26 -28 18 -10 25 -12 17 -4 -8 8 -19 20 -26
28 -6 8 -13 10 -17 4z"/>
<path d="M4392 1038 c-7 -7 -27 -18 -45 -25 -19 -7 -24 -12 -14 -12 23 -1 77
26 77 39 0 13 -3 13 -18 -2z"/>
<path d="M4645 1030 c-3 -6 1 -7 9 -4 18 7 21 14 7 14 -6 0 -13 -4 -16 -10z"/>
<path d="M3475 1020 c-3 -5 -1 -10 4 -10 6 0 11 5 11 10 0 6 -2 10 -4 10 -3 0
-8 -4 -11 -10z"/>
<path d="M3535 1020 c-3 -5 1 -10 9 -10 9 0 16 5 16 10 0 6 -4 10 -9 10 -6 0
-13 -4 -16 -10z"/>
<path d="M4540 1005 c0 -8 7 -15 15 -15 8 0 15 4 15 9 0 5 -7 11 -15 15 -9 3
-15 0 -15 -9z"/>
<path d="M3898 973 c7 -3 16 -2 19 1 4 3 -2 6 -13 5 -11 0 -14 -3 -6 -6z"/>
<path d="M4128 963 c6 -2 18 -2 25 0 6 3 1 5 -13 5 -14 0 -19 -2 -12 -5z"/>
<path d="M4524 956 c24 -19 32 -20 42 -4 4 7 3 8 -4 4 -6 -4 -22 -2 -34 4 -22
11 -22 10 -4 -4z"/>
<path d="M4470 941 c0 -12 6 -21 15 -21 8 0 15 3 15 6 0 3 -7 12 -15 20 -13
14 -15 13 -15 -5z"/>
<path d="M4401 927 c2 -1 13 -9 24 -17 19 -14 19 -14 6 3 -7 9 -18 17 -24 17
-6 0 -8 -1 -6 -3z"/>
<path d="M4390 880 c0 -5 5 -10 11 -10 5 0 7 5 4 10 -3 6 -8 10 -11 10 -2 0
-4 -4 -4 -10z"/>
<path d="M820 3440 c0 -5 5 -10 10 -10 6 0 10 5 10 10 0 6 -4 10 -10 10 -5 0
-10 -4 -10 -10z"/>
<path d="M2820 3380 c0 -5 5 -10 11 -10 5 0 7 5 4 10 -3 6 -8 10 -11 10 -2 0
-4 -4 -4 -10z"/>
<path d="M4815 3320 c3 -5 8 -10 11 -10 2 0 4 5 4 10 0 6 -5 10 -11 10 -5 0
-7 -4 -4 -10z"/>
<path d="M3581 3124 c0 -11 3 -14 6 -6 3 7 2 16 -1 19 -3 4 -6 -2 -5 -13z"/>
<path d="M506 3117 c3 -10 9 -15 12 -12 3 3 0 11 -7 18 -10 9 -11 8 -5 -6z"/>
<path d="M4550 3073 c0 -4 5 -15 10 -23 8 -13 10 -13 10 2 0 9 -4 20 -10 23
-5 3 -10 3 -10 -2z"/>
<path d="M5570 3070 c0 -5 5 -10 11 -10 5 0 7 5 4 10 -3 6 -8 10 -11 10 -2 0
-4 -4 -4 -10z"/>
<path d="M437 3039 c7 -7 15 -10 18 -7 3 3 -2 9 -12 12 -14 6 -15 5 -6 -5z"/>
<path d="M2420 2991 c0 -5 5 -13 10 -16 6 -3 10 -2 10 4 0 5 -4 13 -10 16 -5
3 -10 2 -10 -4z"/>
<path d="M1260 2860 c0 -5 5 -10 11 -10 5 0 7 5 4 10 -3 6 -8 10 -11 10 -2 0
-4 -4 -4 -10z"/>
<path d="M4374 2840 c0 -13 4 -16 10 -10 7 7 7 13 0 20 -6 6 -10 3 -10 -10z"/>
<path d="M3767 2829 c7 -7 15 -10 18 -7 3 3 -2 9 -12 12 -14 6 -15 5 -6 -5z"/>
<path d="M3250 2808 c0 -9 5 -20 11 -23 17 -11 18 -2 3 19 -12 17 -14 17 -14
4z"/>
<path d="M5310 2810 c0 -5 5 -10 10 -10 6 0 10 5 10 10 0 6 -4 10 -10 10 -5 0
-10 -4 -10 -10z"/>
<path d="M2745 2724 c-95 -10 -241 -40 -385 -79 -309 -85 -465 -113 -657 -118
-61 -1 -109 -5 -107 -8 7 -11 156 -48 239 -58 44 -6 166 -15 270 -21 360 -19
478 -41 586 -110 25 -17 55 -40 65 -52 19 -21 19 -21 -1 -14 -112 42 -335 45
-437 6 -54 -21 -167 -103 -175 -126 -2 -6 24 -3 69 8 58 16 97 18 193 15 152
-5 200 -22 275 -97 83 -82 100 -161 56 -256 -66 -142 -244 -169 -451 -68 -61
30 -105 64 -217 168 -275 258 -439 378 -626 462 -162 72 -242 89 -417 88 -137
-1 -159 -4 -254 -32 -57 -17 -105 -33 -107 -35 -3 -2 67 -7 153 -10 226 -9
379 -47 512 -126 83 -49 164 -120 157 -137 -3 -8 0 -11 10 -7 13 5 13 9 -2 32
-31 48 -147 146 -163 137 -5 -4 -11 -2 -13 3 -5 13 -115 61 -141 61 -18 0 -19
2 -7 10 11 7 7 9 -15 7 -16 -1 -29 3 -28 8 1 6 -11 10 -25 11 -15 0 -70 6
-122 13 -52 8 -108 13 -123 13 -42 -2 -23 16 26 23 114 16 243 13 232 -6 -3
-4 -1 -11 5 -14 6 -4 9 -1 8 7 -2 9 7 12 32 11 19 -2 49 -3 65 -3 24 0 27 -2
15 -10 -11 -8 -8 -9 14 -4 22 5 27 4 21 -6 -5 -8 -4 -11 2 -7 6 4 29 0 51 -7
22 -8 43 -12 46 -9 3 4 6 1 6 -5 0 -7 8 -12 18 -12 10 0 27 -7 38 -16 10 -8
13 -12 5 -8 -9 4 -12 3 -7 -4 4 -6 13 -9 20 -6 8 3 30 -3 49 -14 29 -15 34
-22 24 -32 -10 -12 -9 -12 4 -2 18 13 53 6 43 -9 -3 -5 3 -6 12 -2 12 4 15 3
10 -5 -5 -8 -1 -10 10 -5 12 4 15 3 10 -5 -4 -7 -2 -12 5 -12 6 0 21 -10 33
-23 12 -12 29 -21 40 -19 14 3 17 0 13 -12 -4 -9 -3 -15 1 -15 21 3 32 -2 26
-13 -5 -7 -2 -9 9 -5 17 6 31 -18 20 -36 -4 -7 1 -6 10 2 20 16 23 2 5 -19 -7
-8 -3 -6 9 3 12 11 24 14 27 9 3 -6 3 -12 -1 -15 -5 -2 -3 -3 2 -2 14 3 55
-41 47 -51 -4 -4 1 -4 12 0 13 4 17 2 13 -8 -4 -10 -1 -13 9 -9 13 5 19 -8 15
-30 -1 -5 2 -6 7 -3 11 7 37 -11 37 -26 0 -7 11 -18 24 -24 13 -7 28 -20 33
-28 5 -9 14 -16 19 -16 6 0 22 -14 36 -30 13 -17 30 -27 35 -23 6 3 8 1 4 -5
-3 -6 7 -18 23 -28 17 -10 28 -21 25 -26 -3 -4 2 -8 11 -8 9 0 14 -4 10 -9 -3
-5 0 -13 6 -17 8 -4 9 -3 5 4 -4 7 -3 12 3 12 5 0 14 -6 18 -14 4 -8 27 -23
51 -34 23 -10 39 -21 37 -24 -3 -3 1 -8 10 -12 11 -4 14 -2 9 7 -5 9 -4 9 7 0
7 -7 22 -13 34 -13 12 0 26 -5 33 -12 19 -19 200 -17 240 4 18 10 32 12 32 6
0 -6 9 1 21 16 11 14 25 24 30 20 5 -3 8 -2 7 3 -1 4 11 28 27 52 39 58 51
149 25 203 -9 21 -13 35 -8 32 6 -4 5 3 -2 15 -6 12 -16 18 -22 15 -6 -4 -8
-3 -5 3 4 6 0 16 -9 23 -8 7 -13 19 -10 26 3 7 0 16 -6 20 -6 4 -8 3 -4 -4 3
-6 2 -13 -4 -17 -10 -6 -13 3 -13 38 0 9 -4 17 -9 17 -6 0 -8 -7 -4 -15 7 -19
-8 -19 -24 0 -7 8 -16 12 -21 9 -5 -3 -6 3 -2 12 5 14 2 16 -16 11 -13 -3 -31
-2 -40 2 -33 17 -113 31 -138 25 -17 -5 -24 -3 -20 3 4 6 0 14 -9 17 -8 3 -12
2 -9 -4 4 -6 -8 -11 -27 -12 -37 -1 -74 -5 -102 -10 -10 -2 -21 3 -24 11 -3
10 0 12 14 7 10 -4 15 -4 11 0 -11 11 82 51 148 63 71 13 74 13 55 1 -9 -6
-10 -10 -3 -10 6 0 15 5 19 11 4 7 22 8 53 3 25 -4 59 -6 74 -5 16 1 26 -3 23
-8 -4 -5 -1 -13 5 -17 7 -4 9 -3 6 3 -4 6 2 13 14 16 15 4 19 2 14 -12 -3 -10
1 -24 10 -31 9 -7 15 -8 15 -2 0 6 -6 12 -12 15 -7 2 -10 8 -6 12 4 4 14 2 22
-4 10 -8 16 -9 21 -1 3 5 16 8 29 6 19 -3 22 0 21 23 -1 32 -13 53 -25 46 -5
-3 -11 4 -15 15 -3 11 -12 19 -18 17 -7 -1 -11 3 -10 10 2 7 -3 10 -11 7 -7
-3 -20 2 -29 10 -9 9 -22 16 -30 16 -8 0 -31 7 -50 15 -60 25 -233 47 -476 60
-60 3 -98 10 -103 18 -5 7 -8 8 -8 1 0 -12 -49 -12 -69 1 -11 6 -11 9 0 17 11
8 11 9 -1 5 -8 -2 -15 -10 -15 -17 0 -7 -6 -15 -12 -17 -7 -3 -13 0 -13 7 0 6
-12 10 -27 9 -51 -4 -83 1 -83 12 0 8 18 9 58 6 32 -4 46 -3 32 2 -20 6 -11 9
40 14 141 14 187 24 454 96 61 16 114 27 120 24 5 -3 6 -1 2 5 -7 12 0 14 56
14 16 1 25 5 21 11 -4 6 4 8 21 5 14 -3 26 -2 26 1 0 14 158 17 608 12 42 0
61 -4 57 -11 -4 -6 3 -6 19 1 20 10 29 9 43 -2 11 -9 14 -10 9 -1 -4 6 -3 12
2 12 6 0 12 -7 16 -15 3 -10 -1 -15 -12 -15 -13 0 -14 -2 -4 -9 11 -6 10 -10
-5 -16 -10 -5 -21 -7 -26 -7 -4 1 -6 -3 -5 -9 2 -6 -3 -14 -11 -17 -10 -3 -11
0 -5 9 6 11 5 12 -7 2 -8 -6 -30 -13 -49 -16 l-35 -4 38 -1 c44 -2 47 -13 10
-41 -36 -27 -37 -28 -78 -81 -19 -25 -35 -51 -35 -58 0 -7 -5 -10 -10 -7 -6 4
-9 3 -8 -2 1 -4 -6 -23 -17 -40 -14 -24 -22 -29 -28 -20 -6 8 -7 4 -4 -10 3
-13 1 -23 -4 -23 -5 0 -9 -12 -9 -27 0 -26 -2 -26 -55 27 -66 65 -74 60 -9 -6
34 -35 44 -53 40 -68 -3 -12 -6 -25 -6 -31 0 -5 -4 -4 -9 3 -6 10 -11 2 -16
-25 -5 -21 -7 -45 -6 -52 2 -13 0 -13 -14 -1 -15 12 -16 11 -11 -16 4 -16 3
-23 0 -16 -3 6 -10 12 -16 12 -6 0 -3 -9 8 -21 12 -13 14 -23 8 -27 -6 -4 -12
-14 -12 -22 -1 -8 -8 -55 -16 -103 -15 -91 -23 -280 -13 -307 7 -19 19 -102
23 -155 3 -53 3 -52 15 -35 8 11 9 6 5 -20 -3 -19 -2 -30 2 -23 5 8 13 -5 22
-35 8 -26 13 -50 12 -54 -1 -5 2 -8 7 -8 9 0 24 -38 22 -53 -1 -5 4 -5 10 -1
9 5 10 2 6 -9 -3 -10 -3 -17 1 -17 4 0 16 -20 26 -45 10 -24 23 -42 27 -39 5
3 9 0 9 -5 0 -6 0 -13 0 -16 0 -2 14 -19 30 -36 l29 -32 -20 -29 c-11 -15 -25
-28 -31 -28 -6 0 -8 -3 -5 -7 4 -3 20 6 37 22 26 25 30 26 44 12 9 -9 16 -20
16 -26 0 -6 10 -16 23 -23 21 -12 21 -13 -13 -19 l-35 -6 41 -2 c44 -1 71 -21
58 -43 -5 -9 -3 -9 10 1 16 13 17 12 11 -10 -5 -20 -1 -27 19 -37 14 -6 26
-18 26 -27 0 -18 -12 -19 -27 -4 -8 8 -17 8 -29 1 -11 -6 -27 -7 -41 -1 -13 5
-23 5 -23 1 0 -4 -63 -8 -141 -10 -124 -3 -143 -1 -153 14 -10 13 -15 14 -21
4 -5 -9 -4 -11 3 -6 7 4 12 3 12 -3 0 -10 -47 -9 -55 2 -3 4 -2 5 1 3 8 -6 84
71 84 85 0 5 5 7 12 3 7 -4 8 -3 4 4 -4 7 -3 12 2 12 5 0 24 21 41 47 26 41
28 50 17 62 -10 9 -23 11 -43 6 -15 -5 -32 -7 -36 -6 -5 1 -6 -3 -2 -9 6 -10
-14 -15 -44 -11 -7 2 -11 -2 -8 -6 6 -9 -101 -50 -117 -45 -4 1 -13 -2 -20 -7
-11 -9 -47 -16 -146 -27 -25 -2 -56 -7 -70 -10 -20 -4 -22 -2 -10 6 11 8 6 9
-20 5 -19 -3 -71 1 -115 9 -44 8 -83 12 -87 9 -5 -2 -8 4 -9 14 0 11 -3 13 -6
5 -2 -6 -10 -9 -16 -5 -7 4 -14 8 -17 8 -14 3 -80 35 -80 39 0 3 7 2 17 -1 10
-4 14 -2 10 4 -3 5 -1 10 6 11 52 6 152 32 155 41 2 6 8 9 13 5 5 -3 8 0 7 8
-2 8 6 12 22 10 19 -1 22 0 10 8 -11 7 -12 12 -3 21 8 8 7 16 -5 30 -12 14
-18 15 -24 6 -4 -6 -8 -7 -8 -2 0 6 -22 9 -52 7 -33 -2 -48 0 -40 6 9 6 -3 9
-32 10 -25 0 -67 8 -93 18 -70 26 -251 124 -229 124 5 0 3 6 -3 13 -6 8 -8 17
-4 21 4 4 -1 4 -11 0 -12 -5 -22 -2 -28 10 -5 9 -13 14 -19 11 -5 -4 -9 1 -9
9 0 10 -6 13 -17 9 -11 -4 -14 -3 -9 5 4 7 2 12 -4 12 -6 0 -8 4 -5 10 3 6 -1
7 -10 4 -9 -4 -15 -2 -13 3 2 6 -17 26 -40 47 -24 20 -41 36 -37 36 4 0 -4 9
-18 21 -15 11 -26 25 -24 32 1 6 -2 11 -8 12 -16 0 -56 45 -50 55 3 5 -1 7 -9
4 -9 -3 -17 2 -21 16 -4 11 -17 28 -31 36 -13 9 -21 20 -18 25 3 5 2 9 -3 8
-20 -4 -27 2 -13 12 13 10 13 10 0 6 -9 -3 -31 8 -50 24 -32 27 -28 30 18 12
9 -3 19 -7 22 -8 31 -8 49 -18 46 -24 -3 -4 1 -8 9 -8 8 0 15 4 15 9 0 5 11 1
25 -8 22 -14 25 -14 19 -1 -12 32 -228 98 -316 96 l-43 -1 38 -9 c97 -23 171
-82 367 -294 170 -184 311 -288 465 -344 84 -30 222 -55 250 -45 8 3 15 2 15
-4 0 -10 -88 -51 -154 -72 -23 -8 -70 -11 -118 -8 -43 3 -75 1 -71 -3 4 -4 46
-27 93 -52 92 -50 198 -82 301 -92 131 -14 350 30 492 99 37 17 67 30 67 29 0
-2 -24 -34 -53 -71 -65 -80 -128 -139 -171 -158 -27 -12 3 -13 245 -14 152 0
310 3 352 6 l75 7 -58 39 c-65 43 -187 158 -242 228 -19 25 -56 81 -81 125
-262 453 -181 1017 200 1375 38 36 90 79 116 95 25 17 46 33 47 36 0 11 -645
31 -725 23z m-760 -762 c-3 -3 -11 0 -18 7 -9 10 -8 11 6 5 10 -3 15 -9 12
-12z m1386 -1107 c41 -36 39 -50 -1 -15 -13 11 -26 20 -30 20 -5 0 -10 7 -14
15 -9 23 3 18 45 -20z"/>
<path d="M3100 2681 c0 -5 5 -13 10 -16 6 -3 10 -2 10 4 0 5 -4 13 -10 16 -5
3 -10 2 -10 -4z"/>
<path d="M2688 2673 c6 -2 18 -2 25 0 6 3 1 5 -13 5 -14 0 -19 -2 -12 -5z"/>
<path d="M3478 2653 c7 -3 16 -2 19 1 4 3 -2 6 -13 5 -11 0 -14 -3 -6 -6z"/>
<path d="M2823 2603 c37 -2 97 -2 135 0 37 2 6 3 -68 3 -74 0 -105 -1 -67 -3z"/>
<path d="M3083 2603 c9 -2 23 -2 30 0 6 3 -1 5 -18 5 -16 0 -22 -2 -12 -5z"/>
<path d="M3148 2603 c7 -3 16 -2 19 1 4 3 -2 6 -13 5 -11 0 -14 -3 -6 -6z"/>
<path d="M2629 2596 c-2 -2 -35 -7 -74 -11 -38 -3 -71 -8 -74 -11 -8 -7 61 -3
154 11 70 10 80 13 44 14 -25 0 -48 -1 -50 -3z"/>
<path d="M2438 2563 c7 -3 16 -2 19 1 4 3 -2 6 -13 5 -11 0 -14 -3 -6 -6z"/>
<path d="M2435 2530 c28 -12 45 -12 45 0 0 6 -15 10 -32 9 -28 0 -30 -2 -13
-9z"/>
<path d="M2508 2523 c7 -3 16 -2 19 1 4 3 -2 6 -13 5 -11 0 -14 -3 -6 -6z"/>
<path d="M2544 2519 c-3 -5 1 -9 8 -9 7 -1 32 -5 56 -9 55 -11 42 3 -16 17
-24 6 -44 6 -48 1z"/>
<path d="M2678 2483 c7 -3 16 -2 19 1 4 3 -2 6 -13 5 -11 0 -14 -3 -6 -6z"/>
<path d="M2735 2466 c98 -45 163 -78 185 -93 23 -15 23 -14 -2 9 -27 24 -72
49 -150 82 -45 20 -74 21 -33 2z"/>
<path d="M3294 2462 c4 -3 14 -7 22 -8 9 -1 13 0 10 4 -4 3 -14 7 -22 8 -9 1
-13 0 -10 -4z"/>
<path d="M658 2353 c7 -3 16 -2 19 1 4 3 -2 6 -13 5 -11 0 -14 -3 -6 -6z"/>
<path d="M648 2333 c7 -3 16 -2 19 1 4 3 -2 6 -13 5 -11 0 -14 -3 -6 -6z"/>
<path d="M1018 2333 c7 -3 16 -2 19 1 4 3 -2 6 -13 5 -11 0 -14 -3 -6 -6z"/>
<path d="M2418 2223 c7 -3 16 -2 19 1 4 3 -2 6 -13 5 -11 0 -14 -3 -6 -6z"/>
<path d="M2626 2221 c-3 -5 1 -11 9 -14 9 -4 12 -1 8 9 -6 16 -10 17 -17 5z"/>
<path d="M2528 2193 c7 -3 16 -2 19 1 4 3 -2 6 -13 5 -11 0 -14 -3 -6 -6z"/>
<path d="M2670 2170 c0 -5 5 -10 11 -10 5 0 7 5 4 10 -3 6 -8 10 -11 10 -2 0
-4 -4 -4 -10z"/>
<path d="M1048 2156 c-86 -13 -112 -26 -52 -26 80 0 255 -54 354 -108 88 -48
169 -113 244 -194 42 -46 76 -77 76 -71 0 7 -6 18 -14 25 -12 11 -12 16 2 33
13 14 13 17 2 9 -12 -9 -23 -2 -54 29 -22 22 -34 37 -28 33 6 -3 14 -1 18 5 4
7 3 9 -3 6 -6 -4 -16 0 -23 8 -7 8 -18 15 -26 15 -25 0 -37 50 -19 80 7 13 6
13 -7 2 -10 -8 -14 -20 -11 -30 6 -14 4 -15 -9 -4 -10 8 -17 9 -20 2 -1 -5
-21 6 -42 25 -22 19 -48 35 -58 35 -10 0 -18 4 -18 10 0 11 -27 27 -55 31 -11
2 -22 6 -25 9 -3 3 -38 17 -79 30 -62 21 -70 26 -50 31 35 10 58 9 34 -1 -14
-6 -15 -9 -4 -9 8 -1 19 3 25 8 5 6 52 4 119 -3 61 -8 113 -11 118 -9 4 2 7 2
7 -2 0 -3 -10 -9 -22 -14 l-22 -8 22 -5 c12 -4 20 -2 16 3 -3 5 2 9 10 9 31 0
16 29 -16 35 -149 25 -274 29 -390 11z"/>
<path d="M1590 2163 c0 -5 5 -15 10 -23 7 -12 9 -10 7 8 -1 19 -17 33 -17 15z"/>
<path d="M2855 2150 c3 -5 8 -10 11 -10 2 0 4 5 4 10 0 6 -5 10 -11 10 -5 0
-7 -4 -4 -10z"/>
<path d="M2888 2138 c11 -14 52 -31 52 -22 0 2 -15 11 -32 20 -28 14 -31 15
-20 2z"/>
<path d="M2830 2120 c0 -5 5 -10 10 -10 6 0 10 5 10 10 0 6 -4 10 -10 10 -5 0
-10 -4 -10 -10z"/>
<path d="M1513 2097 c2 -13 17 -27 29 -27 4 0 5 6 2 14 -7 18 -35 30 -31 13z"/>
<path d="M1474 2092 c-9 -5 -8 -10 1 -19 11 -10 13 -9 12 7 -1 11 -1 20 -2 20
0 0 -5 -4 -11 -8z"/>
<path d="M2528 2093 c6 -2 18 -2 25 0 6 3 1 5 -13 5 -14 0 -19 -2 -12 -5z"/>
<path d="M2850 2096 c0 -4 7 -14 15 -22 8 -9 15 -11 15 -6 0 5 -7 15 -15 22
-8 7 -15 9 -15 6z"/>
<path d="M1840 2046 c0 -2 8 -10 18 -17 15 -13 16 -12 3 4 -13 16 -21 21 -21
13z"/>
<path d="M2881 2034 c0 -11 3 -14 6 -6 3 7 2 16 -1 19 -3 4 -6 -2 -5 -13z"/>
<path d="M1450 2032 c0 -12 19 -26 26 -19 2 2 -2 10 -11 17 -9 8 -15 8 -15 2z"/>
<path d="M2894 1916 c0 -53 2 -81 7 -66 10 34 11 148 2 153 -5 3 -8 -36 -9
-87z"/>
<path d="M1924 1970 c0 -13 4 -16 10 -10 7 7 7 13 0 20 -6 6 -10 3 -10 -10z"/>
<path d="M5516 1967 c3 -10 9 -15 12 -12 3 3 0 11 -7 18 -10 9 -11 8 -5 -6z"/>
<path d="M365 1960 c3 -5 8 -10 11 -10 2 0 4 5 4 10 0 6 -5 10 -11 10 -5 0 -7
-4 -4 -10z"/>
<path d="M1375 1960 c-3 -5 -2 -10 4 -10 5 0 13 5 16 10 3 6 2 10 -4 10 -5 0
-13 -4 -16 -10z"/>
<path d="M5440 1907 c0 -10 8 -17 18 -17 9 0 13 4 7 8 -5 4 -13 11 -17 16 -5
5 -8 2 -8 -7z"/>
<path d="M1979 1872 c6 -12 16 -24 22 -28 8 -4 8 -1 0 14 -6 12 -16 24 -22 28
-8 4 -8 1 0 -14z"/>
<path d="M1945 1850 c4 -14 14 -32 22 -40 10 -11 9 -5 -3 20 -22 45 -28 52
-19 20z"/>
<path d="M2290 1840 c12 -8 12 -10 1 -10 -8 0 -12 -2 -9 -5 3 -3 13 -2 22 1
14 5 15 9 4 15 -7 5 -17 9 -23 9 -5 0 -3 -5 5 -10z"/>
<path d="M2220 1835 c0 -2 6 -8 13 -14 10 -8 14 -7 14 2 0 8 -6 14 -14 14 -7
0 -13 -1 -13 -2z"/>
<path d="M2040 1813 c0 -9 62 -63 73 -63 4 0 7 5 7 10 0 6 -4 10 -10 10 -5 0
-10 8 -10 18 0 12 -3 13 -8 4 -6 -9 -14 -7 -30 8 -12 12 -22 17 -22 13z"/>
<path d="M2868 1795 c-10 -13 -18 -27 -18 -32 0 -4 -14 -24 -30 -43 -16 -19
-30 -39 -30 -45 0 -14 59 56 66 80 4 10 13 25 20 33 8 7 14 18 14 23 0 13 -3
11 -22 -16z"/>
<path d="M1988 1772 c9 -10 19 -17 21 -16 6 5 -20 34 -30 34 -5 0 -1 -8 9 -18z"/>
<path d="M2157 1749 c12 -12 25 -20 28 -17 3 3 -7 13 -22 23 l-28 17 22 -23z"/>
<path d="M1888 1743 c7 -3 16 -2 19 1 4 3 -2 6 -13 5 -11 0 -14 -3 -6 -6z"/>
<path d="M1936 1731 c-3 -5 4 -11 16 -14 29 -8 32 -4 8 11 -10 6 -21 8 -24 3z"/>
<path d="M1876 1705 c10 -8 26 -14 34 -14 9 0 4 6 -10 14 -33 19 -49 19 -24 0z"/>
<path d="M2026 1704 c-9 -23 -2 -28 13 -10 7 8 8 17 3 20 -6 3 -13 -1 -16 -10z"/>
<path d="M2247 1709 c7 -7 15 -10 18 -7 3 3 -2 9 -12 12 -14 6 -15 5 -6 -5z"/>
<path d="M2047 1683 c-2 -5 11 -21 29 -36 19 -16 34 -24 34 -19 0 6 -11 19
-25 30 -13 11 -21 22 -18 26 3 3 1 6 -5 6 -6 0 -13 -3 -15 -7z"/>
<path d="M2214 1682 c2 -4 37 -22 78 -41 40 -18 80 -37 89 -42 9 -4 34 -10 55
-13 35 -6 33 -4 -16 14 -30 12 -67 25 -82 30 -34 10 -92 42 -96 53 -2 4 -10 7
-18 7 -9 0 -13 -3 -10 -8z"/>
<path d="M1941 1660 c13 -12 37 -32 53 -45 30 -27 56 -34 34 -11 -7 8 -14 13
-16 11 -1 -1 -19 13 -39 31 -20 19 -41 34 -46 34 -6 0 1 -9 14 -20z"/>
<path d="M2740 1650 c-14 -11 -20 -20 -14 -20 6 0 21 9 34 20 30 26 13 26 -20
0z"/>
<path d="M2665 1611 c-16 -9 -66 -21 -110 -28 l-80 -12 76 4 c75 4 149 27 149
45 0 6 -1 10 -2 9 -2 -1 -16 -9 -33 -18z"/>
<path d="M2045 1570 c3 -5 8 -10 11 -10 2 0 4 5 4 10 0 6 -5 10 -11 10 -5 0
-7 -4 -4 -10z"/>
<path d="M2102 1528 c18 -18 35 -29 37 -24 4 8 -48 55 -62 56 -4 0 7 -15 25
-32z"/>
<path d="M956 1533 c-6 -14 -5 -15 5 -6 7 7 10 15 7 18 -3 3 -9 -2 -12 -12z"/>
<path d="M2919 1503 c-13 -17 -13 -17 6 -3 11 8 22 16 24 17 2 2 0 3 -6 3 -6
0 -17 -8 -24 -17z"/>
<path d="M2155 1490 c4 -8 17 -26 29 -39 l21 -24 -49 6 c-27 2 -61 14 -78 27
-16 12 -32 19 -36 16 -19 -20 92 -59 152 -54 l37 3 -42 40 c-24 22 -39 33 -34
25z"/>
<path d="M1686 1472 c-3 -5 1 -9 9 -9 8 0 12 4 9 9 -3 4 -7 8 -9 8 -2 0 -6 -4
-9 -8z"/>
<path d="M877 1456 c-4 -10 -1 -13 8 -9 8 3 12 9 9 14 -7 12 -11 11 -17 -5z"/>
<path d="M100 1425 c-10 -12 -10 -19 -2 -27 9 -9 12 -8 12 5 0 21 23 22 40 2
18 -22 30 -18 30 10 0 14 -4 25 -10 25 -5 0 -10 -5 -10 -12 0 -9 -3 -9 -12 0
-16 16 -33 15 -48 -3z"/>
<path d="M2059 1400 c13 -11 28 -20 33 -20 6 0 -1 9 -15 20 -33 26 -49 26 -18
0z"/>
<path d="M2872 1391 c2 -7 7 -12 11 -12 12 1 9 15 -3 20 -7 2 -11 -2 -8 -8z"/>
<path d="M96 1372 c-5 -9 14 -31 41 -46 6 -3 19 1 28 10 12 12 13 19 4 30 -16
20 -39 17 -39 -3 -1 -17 -2 -17 -14 0 -8 10 -17 14 -20 9z m64 -22 c0 -5 -4
-10 -10 -10 -5 0 -10 5 -10 10 0 6 5 10 10 10 6 0 10 -4 10 -10z"/>
<path d="M2123 1350 c14 -11 29 -20 34 -20 4 0 25 -9 45 -19 19 -11 38 -17 41
-14 6 5 -121 72 -137 73 -5 0 3 -9 17 -20z"/>
<path d="M2755 1319 c-11 -17 0 -20 21 -4 17 13 17 14 2 15 -9 0 -20 -5 -23
-11z"/>
<path d="M90 1291 c0 -27 41 -36 47 -10 7 26 23 24 23 -3 0 -15 3 -19 10 -12
14 14 2 44 -17 44 -9 0 -22 -8 -29 -17 -13 -17 -13 -17 -14 0 0 23 -20 22 -20
-2z"/>
<path d="M2285 1286 c17 -8 32 -12 34 -10 7 7 -3 12 -34 18 l-30 6 30 -14z"/>
<path d="M2823 1258 c-11 -18 -22 -41 -26 -52 -4 -10 -13 -16 -20 -13 -6 3
-21 8 -32 11 -15 5 -15 4 3 -5 24 -13 29 -29 9 -29 -7 0 -27 -13 -44 -29 -18
-16 -38 -31 -45 -34 -7 -2 -10 -7 -6 -11 3 -4 33 13 65 38 58 44 97 87 122
134 18 35 -5 26 -26 -10z"/>
<path d="M2335 1270 c3 -6 27 -10 52 -10 57 0 53 5 -10 13 -31 4 -46 3 -42 -3z"/>
<path d="M2736 1271 c-35 -5 -65 -31 -36 -31 6 0 9 3 7 8 -3 4 15 7 39 8 25 1
50 6 56 12 13 13 2 14 -66 3z"/>
<path d="M2455 1254 c47 -7 225 -9 225 -2 0 4 -55 7 -122 7 -68 -1 -114 -3
-103 -5z"/>
<path d="M92 1233 c4 -23 48 -31 48 -9 0 9 5 16 10 16 6 0 10 -10 10 -22 0
-15 3 -19 10 -12 14 14 2 44 -17 44 -9 0 -22 -8 -29 -17 -13 -17 -13 -17 -14
0 0 9 -5 17 -11 17 -6 0 -9 -8 -7 -17z"/>
<path d="M622 1186 c7 -8 15 -12 17 -11 5 6 -10 25 -20 25 -5 0 -4 -6 3 -14z"/>
<path d="M2705 1189 c-4 -6 -5 -12 -2 -15 2 -3 7 2 10 11 7 17 1 20 -8 4z"/>
<path d="M97 1176 c-12 -32 49 -50 73 -21 6 8 9 19 5 25 -9 15 -72 12 -78 -4z
m56 -11 c-4 -15 -36 -12 -41 3 -3 9 3 13 19 10 13 -1 23 -7 22 -13z"/>
<path d="M3046 1173 c-6 -14 -5 -15 5 -6 7 7 10 15 7 18 -3 3 -9 -2 -12 -12z"/>
<path d="M5705 1159 c-4 -6 -5 -12 -2 -15 2 -3 7 2 10 11 7 17 1 20 -8 4z"/>
<path d="M2671 1144 c0 -11 3 -14 6 -6 3 7 2 16 -1 19 -3 4 -6 -2 -5 -13z"/>
<path d="M3045 1140 c-17 -11 -23 -20 -15 -20 17 1 56 28 49 34 -3 3 -18 -4
-34 -14z"/>
<path d="M2616 1125 c7 -18 20 -19 30 -3 4 7 3 8 -4 4 -7 -4 -12 -2 -12 3 0 6
-4 11 -10 11 -5 0 -7 -7 -4 -15z"/>
<path d="M118 1123 c-36 -5 -35 -14 1 -36 35 -21 41 -21 41 -3 0 8 6 17 13 19
9 4 8 8 -3 16 -8 6 -17 10 -20 9 -3 0 -17 -3 -32 -5z m27 -23 c3 -5 2 -10 -4
-10 -5 0 -13 5 -16 10 -3 6 -2 10 4 10 5 0 13 -4 16 -10z"/>
<path d="M550 1120 c0 -5 5 -10 11 -10 5 0 7 5 4 10 -3 6 -8 10 -11 10 -2 0
-4 -4 -4 -10z"/>
<path d="M1526 1122 c-3 -5 8 -6 25 -4 16 2 29 6 29 8 0 8 -49 4 -54 -4z"/>
<path d="M2577 1104 c6 -15 23 -19 23 -5 0 5 -7 11 -14 14 -10 4 -13 1 -9 -9z"/>
<path d="M2948 1098 c-27 -11 -48 -24 -48 -29 0 -9 89 26 105 42 15 15 -6 10
-57 -13z"/>
<path d="M2547 1073 c-3 -3 -3 -11 0 -18 5 -14 33 -9 33 5 0 10 -26 20 -33 13z"/>
<path d="M2605 1070 c4 -6 11 -8 16 -5 14 9 11 15 -7 15 -8 0 -12 -5 -9 -10z"/>
<path d="M480 1061 c0 -5 7 -12 16 -15 14 -5 15 -4 4 9 -14 17 -20 19 -20 6z"/>
<path d="M2498 1054 c21 -42 40 -49 126 -46 44 2 97 6 116 11 20 4 -14 6 -83
3 l-117 -5 -26 29 c-17 20 -22 22 -16 8z"/>
<path d="M102 1038 c26 -40 87 -32 71 9 -8 20 -43 16 -43 -4 -1 -17 -1 -17
-14 0 -19 25 -31 21 -14 -5z m58 -3 c0 -8 -4 -15 -10 -15 -5 0 -10 7 -10 15 0
8 5 15 10 15 6 0 10 -7 10 -15z"/>
<path d="M2830 1050 c0 -5 7 -7 15 -4 8 4 15 8 15 10 0 2 -7 4 -15 4 -8 0 -15
-4 -15 -10z"/>
<path d="M2474 1009 c-3 -6 0 -15 7 -20 29 -18 39 -7 15 17 -11 10 -17 11 -22
3z"/>
<path d="M3365 1001 c-3 -5 -2 -12 3 -15 5 -3 9 1 9 9 0 17 -3 19 -12 6z"/>
<path d="M133 979 c-6 -21 -7 -21 -19 -4 -19 26 -27 13 -8 -13 26 -38 84 -20
63 20 -13 24 -30 23 -36 -3z m27 -8 c0 -6 -4 -13 -10 -16 -5 -3 -10 1 -10 9 0
9 5 16 10 16 6 0 10 -4 10 -9z"/>
<path d="M2435 960 c3 -5 14 -10 23 -10 15 0 15 2 2 10 -20 13 -33 13 -25 0z"/>
<path d="M1390 936 c0 -9 5 -16 10 -16 6 0 10 4 10 9 0 6 -4 13 -10 16 -5 3
-10 -1 -10 -9z"/>
<path d="M3388 933 c7 -3 16 -2 19 1 4 3 -2 6 -13 5 -11 0 -14 -3 -6 -6z"/>
<path d="M90 910 c0 -11 4 -20 9 -20 5 0 16 -3 25 -6 11 -4 16 -1 16 10 0 9 5
16 10 16 6 0 10 -8 10 -17 0 -12 3 -14 10 -7 14 14 2 44 -17 44 -9 0 -22 -8
-29 -17 -13 -17 -13 -17 -14 0 0 24 -20 22 -20 -3z"/>
<path d="M110 860 c13 -8 13 -10 1 -10 -24 0 1 -18 32 -24 22 -4 27 -1 27 15
0 10 -3 19 -7 20 -5 0 -21 3 -38 5 -23 3 -26 2 -15 -6z"/>
<path d="M1325 860 c3 -5 8 -10 11 -10 2 0 4 5 4 10 0 6 -5 10 -11 10 -5 0 -7
-4 -4 -10z"/>
<path d="M5376 815 c4 -8 8 -15 10 -15 2 0 4 7 4 15 0 8 -4 15 -10 15 -5 0 -7
-7 -4 -15z"/>
<path d="M1250 801 c0 -10 19 -25 25 -20 1 2 -3 10 -11 17 -8 7 -14 8 -14 3z"/>
<path d="M80 770 c0 -6 27 -10 60 -10 33 0 60 4 60 10 0 6 -27 10 -60 10 -33
0 -60 -4 -60 -10z"/>
<path d="M5310 750 c0 -5 5 -10 11 -10 5 0 7 5 4 10 -3 6 -8 10 -11 10 -2 0
-4 -4 -4 -10z"/>
<path d="M110 728 c0 -8 5 -19 12 -26 9 -9 6 -12 -15 -12 -15 0 -27 -4 -27
-10 0 -5 23 -10 50 -10 28 0 50 5 50 10 0 6 -6 10 -14 10 -8 0 -24 12 -35 26
-13 16 -21 21 -21 12z"/>
<path d="M155 719 c-4 -6 -5 -13 -2 -16 7 -7 27 6 27 18 0 12 -17 12 -25 -2z"/>
<path d="M5240 680 c0 -5 5 -10 11 -10 5 0 7 5 4 10 -3 6 -8 10 -11 10 -2 0
-4 -4 -4 -10z"/>
<path d="M114 644 c3 -9 6 -18 6 -20 0 -12 49 -1 54 12 9 24 -3 32 -15 11 -12
-21 -29 -22 -29 -2 0 8 -5 15 -11 15 -6 0 -8 -7 -5 -16z"/>
<path d="M5210 640 c8 -5 20 -10 25 -10 6 0 3 5 -5 10 -8 5 -19 10 -25 10 -5
0 -3 -5 5 -10z"/>
<path d="M120 595 c-10 -12 -10 -18 0 -30 7 -8 19 -15 26 -15 8 0 14 -4 14
-10 0 -13 -27 -13 -35 0 -4 6 -11 5 -19 -3 -19 -16 1 -28 34 -20 37 9 42 13
31 27 -7 9 -7 16 2 25 9 10 8 15 -7 27 -25 18 -31 18 -46 -1z m38 -16 c-2 -6
-8 -10 -13 -10 -5 0 -11 4 -13 10 -2 6 4 11 13 11 9 0 15 -5 13 -11z"/>
<path d="M92 478 c4 -30 34 -35 43 -9 8 27 29 27 22 1 -3 -11 -1 -20 3 -20 14
0 21 17 14 34 -8 20 -40 21 -48 1 -3 -8 -10 -15 -17 -15 -6 0 -9 7 -5 15 3 8
1 15 -5 15 -6 0 -9 -10 -7 -22z"/>
<path d="M1975 490 c-3 -5 -1 -10 4 -10 6 0 11 5 11 10 0 6 -2 10 -4 10 -3 0
-8 -4 -11 -10z"/>
<path d="M1910 431 c0 -5 5 -13 10 -16 6 -3 10 -2 10 4 0 5 -4 13 -10 16 -5 3
-10 2 -10 -4z"/>
<path d="M119 404 c-11 -14 -10 -18 5 -29 10 -8 24 -11 31 -9 17 7 27 33 18
47 -4 7 -10 2 -14 -13 -7 -24 -7 -24 -8 -2 -1 26 -13 28 -32 6z"/>
<path d="M1870 386 c0 -9 5 -16 10 -16 6 0 10 4 10 9 0 6 -4 13 -10 16 -5 3
-10 -1 -10 -9z"/>
<path d="M114 335 c-4 -8 -12 -15 -20 -15 -8 0 -14 -4 -14 -10 0 -5 23 -10 50
-10 50 0 55 4 44 34 -8 20 -53 21 -60 1z m46 -5 c0 -5 -7 -10 -15 -10 -8 0
-15 5 -15 10 0 6 7 10 15 10 8 0 15 -4 15 -10z"/>
<path d="M3860 320 c8 -5 20 -10 25 -10 6 0 3 5 -5 10 -8 5 -19 10 -25 10 -5
0 -3 -5 5 -10z"/>
<path d="M5890 310 c0 -5 5 -10 10 -10 6 0 10 5 10 10 0 6 -4 10 -10 10 -5 0
-10 -4 -10 -10z"/>
<path d="M120 275 c-10 -12 -10 -18 0 -30 7 -8 18 -15 25 -15 7 0 18 7 25 15
10 12 10 18 0 30 -7 8 -18 15 -25 15 -7 0 -18 -7 -25 -15z m40 -15 c0 -5 -7
-10 -15 -10 -8 0 -15 5 -15 10 0 6 7 10 15 10 8 0 15 -4 15 -10z"/>
<path d="M4800 250 c0 -5 5 -10 11 -10 5 0 7 5 4 10 -3 6 -8 10 -11 10 -2 0
-4 -4 -4 -10z"/>
<path d="M80 210 c0 -5 7 -10 15 -10 9 0 18 -7 21 -15 8 -20 50 -19 58 1 3 9
4 20 0 25 -7 12 -94 11 -94 -1z m78 -18 c2 -7 -3 -12 -12 -12 -9 0 -16 7 -16
16 0 17 22 14 28 -4z"/>
<path d="M2670 170 c0 -5 5 -10 10 -10 6 0 10 5 10 10 0 6 -4 10 -10 10 -5 0
-10 -4 -10 -10z"/>
<path d="M555 160 c-3 -6 1 -7 9 -4 18 7 21 14 7 14 -6 0 -13 -4 -16 -10z"/>
<path d="M1645 160 c3 -5 8 -10 11 -10 2 0 4 5 4 10 0 6 -5 10 -11 10 -5 0 -7
-4 -4 -10z"/>
<path d="M123 148 c-38 -13 -43 -33 -10 -41 12 -3 32 -9 45 -12 14 -5 22 -3
22 4 0 6 -7 11 -15 11 -8 0 -15 7 -15 15 0 8 7 15 15 15 8 0 15 5 15 10 0 12
-14 11 -57 -2z m17 -18 c0 -5 -8 -10 -17 -10 -15 0 -16 2 -3 10 19 12 20 12
20 0z"/>
<path d="M2636 127 c3 -10 9 -15 12 -12 3 3 0 11 -7 18 -10 9 -11 8 -5 -6z"/>
<path d="M1585 99 c-4 -6 -2 -16 5 -22 10 -9 11 -9 6 0 -3 6 -1 13 6 15 9 3 9
6 1 11 -7 4 -15 2 -18 -4z"/>
<path d="M5637 49 c7 -7 15 -10 18 -7 3 3 -2 9 -12 12 -14 6 -15 5 -6 -5z"/>
</g>
</svg>
